<svg xmlns="http://www.w3.org/2000/svg" width="1800" height="2380" viewBox="0 0 1800 2380">
<defs>
<style>
.bg{fill:#160b04}.glow{fill:#6b3f10;opacity:.38}.title{font:900 62px 'Microsoft YaHei','Noto Sans CJK SC',Arial,sans-serif;fill:#fff7ed}.subtitle{font:400 24px 'Microsoft YaHei','Noto Sans CJK SC',Arial,sans-serif;fill:#fed7aa}.section{font:800 28px 'Microsoft YaHei','Noto Sans CJK SC',Arial,sans-serif;fill:#ffedd5}.time{font:800 20px 'Microsoft YaHei','Noto Sans CJK SC',Arial,sans-serif;fill:#991b1b}.team{font:800 28px 'Microsoft YaHei','Noto Sans CJK SC',Arial,sans-serif;fill:#111827}.panel{fill:#301707;stroke:#b45309;stroke-width:2}.match{fill:#fffaf0;stroke:#f59e0b;stroke-width:2}.slot{fill:#fff7ed;stroke:#fb923c;stroke-width:2.5}.quarter{fill:#ffedd5;stroke:#f97316;stroke-width:3}.semi{fill:#fef3c7;stroke:#facc15;stroke-width:3}.final{fill:#fff7cc;stroke:#fbbf24;stroke-width:4}.third{fill:#f1f5f9;stroke:#94a3b8;stroke-width:3}.connector{fill:none;stroke:#f8fafc;stroke-width:5;stroke-linecap:round;stroke-linejoin:round;opacity:.86}.connectorHot{fill:none;stroke:#fbbf24;stroke-width:7;stroke-linecap:round;stroke-linejoin:round}.note{font:400 22px 'Microsoft YaHei','Noto Sans CJK SC',Arial,sans-serif;fill:#fde68a}.pathLabel{font:800 24px 'Microsoft YaHei','Noto Sans CJK SC',Arial,sans-serif;fill:#ffffff}
</style>
<radialGradient id="gold" cx="50%" cy="15%" r="75%"><stop offset="0%" stop-color="#a16207"/><stop offset="45%" stop-color="#3b1d09"/><stop offset="100%" stop-color="#120805"/></radialGradient>
</defs>
<rect class="bg" x="0" y="0" width="1800" height="2380"/>
<rect x="0" y="0" width="1800" height="2380" fill="url(#gold)" opacity=".68"/>
<circle class="glow" cx="900" cy="1080" r="390"/>
<text class="title" x="90" y="92">2026世界杯淘汰赛赛程</text>
<text class="subtitle" x="92" y="134">比赛时间已统一换成美国东部时间（ET）。四分之一决赛与半决赛连线按官方 match number 路径重画。</text>
<text class="subtitle" x="92" y="170">生成时间：2026-06-30 00:21 UTC；赛程数据刷新至 2026-06-29。</text>
<rect class="panel" x="70" y="245" width="760" height="755" rx="18"/>
<text class="section" x="96" y="293">左上路径</text>
<g id="m74">
  <rect class="match" x="98" y="329" width="245" height="120" rx="14"/>
<text class="time" x="116" y="359">M74 · 6月29日 4:30 PM ET</text>
<text class="team" x="116" y="395">德国</text>
<text class="team" x="116" y="429">巴拉圭</text>
</g>
<g id="m77">
  <rect class="match" x="98" y="484" width="245" height="120" rx="14"/>
<text class="time" x="116" y="514">M77 · 6月30日 5:00 PM ET</text>
<text class="team" x="116" y="550">法国</text>
<text class="team" x="116" y="584">瑞典</text>
</g>
<g id="m89">
  <rect class="slot" x="413" y="407" width="240" height="120" rx="14"/>
<text class="time" x="431" y="437">M89 · 7月4日 5:00 PM ET</text>
<text class="team" x="431" y="473">M74胜者</text>
<text class="team" x="431" y="507">M77胜者</text>
</g>
<path class="connector" d="M343 389 H378 V467 H413"/>
<path class="connector" d="M343 544 H378 V467 H413"/>
<g id="m73">
  <rect class="match" x="98" y="665" width="245" height="120" rx="14"/>
<text class="time" x="116" y="695">M73 · 6月28日 3:00 PM ET</text>
<text class="team" x="116" y="731">南非</text>
<text class="team" x="116" y="765">加拿大</text>
</g>
<g id="m75">
  <rect class="match" x="98" y="820" width="245" height="120" rx="14"/>
<text class="time" x="116" y="850">M75 · 6月29日 9:00 PM ET</text>
<text class="team" x="116" y="886">荷兰</text>
<text class="team" x="116" y="920">摩洛哥</text>
</g>
<g id="m90">
  <rect class="slot" x="413" y="743" width="240" height="120" rx="14"/>
<text class="time" x="431" y="773">M90 · 7月4日 1:00 PM ET</text>
<text class="team" x="431" y="809">M73胜者</text>
<text class="team" x="431" y="843">M75胜者</text>
</g>
<path class="connector" d="M343 725 H378 V803 H413"/>
<path class="connector" d="M343 880 H378 V803 H413"/>
<g id="m97">
  <rect class="quarter" x="680" y="563" width="225" height="120" rx="14"/>
<text class="time" x="698" y="593">M97 · 7月9日 4:00 PM ET</text>
<text class="team" x="698" y="629">M89胜者</text>
<text class="team" x="698" y="663">M90胜者</text>
</g>
<path class="connector" d="M653 467 H665 V623 H680"/>
<path class="connector" d="M653 803 H665 V623 H680"/>
<rect class="panel" x="970" y="245" width="760" height="755" rx="18"/>
<text class="section" x="996" y="293">右上路径</text>
<g id="m76">
  <rect class="match" x="998" y="329" width="245" height="120" rx="14"/>
<text class="time" x="1016" y="359">M76 · 6月29日 1:00 PM ET</text>
<text class="team" x="1016" y="395">巴西</text>
<text class="team" x="1016" y="429">日本</text>
</g>
<g id="m78">
  <rect class="match" x="998" y="484" width="245" height="120" rx="14"/>
<text class="time" x="1016" y="514">M78 · 6月30日 1:00 PM ET</text>
<text class="team" x="1016" y="550">科特迪瓦</text>
<text class="team" x="1016" y="584">挪威</text>
</g>
<g id="m91">
  <rect class="slot" x="1313" y="407" width="240" height="120" rx="14"/>
<text class="time" x="1331" y="437">M91 · 7月5日 4:00 PM ET</text>
<text class="team" x="1331" y="473">M76胜者</text>
<text class="team" x="1331" y="507">M78胜者</text>
</g>
<path class="connector" d="M1243 389 H1278 V467 H1313"/>
<path class="connector" d="M1243 544 H1278 V467 H1313"/>
<g id="m79">
  <rect class="match" x="998" y="665" width="245" height="120" rx="14"/>
<text class="time" x="1016" y="695">M79 · 6月30日 9:00 PM ET</text>
<text class="team" x="1016" y="731">墨西哥</text>
<text class="team" x="1016" y="765">厄瓜多尔</text>
</g>
<g id="m80">
  <rect class="match" x="998" y="820" width="245" height="120" rx="14"/>
<text class="time" x="1016" y="850">M80 · 7月1日 12:00 PM ET</text>
<text class="team" x="1016" y="886">英格兰</text>
<text class="team" x="1016" y="920">刚果（金）</text>
</g>
<g id="m92">
  <rect class="slot" x="1313" y="743" width="240" height="120" rx="14"/>
<text class="time" x="1331" y="773">M92 · 7月5日 8:00 PM ET</text>
<text class="team" x="1331" y="809">M79胜者</text>
<text class="team" x="1331" y="843">M80胜者</text>
</g>
<path class="connector" d="M1243 725 H1278 V803 H1313"/>
<path class="connector" d="M1243 880 H1278 V803 H1313"/>
<g id="m99">
  <rect class="quarter" x="1580" y="563" width="225" height="120" rx="14"/>
<text class="time" x="1598" y="593">M99 · 7月11日 5:00 PM ET</text>
<text class="team" x="1598" y="629">M91胜者</text>
<text class="team" x="1598" y="663">M92胜者</text>
</g>
<path class="connector" d="M1553 467 H1565 V623 H1580"/>
<path class="connector" d="M1553 803 H1565 V623 H1580"/>
<rect class="panel" x="70" y="1265" width="760" height="755" rx="18"/>
<text class="section" x="96" y="1313">左下路径</text>
<g id="m83">
  <rect class="match" x="98" y="1349" width="245" height="120" rx="14"/>
<text class="time" x="116" y="1379">M83 · 7月2日 7:00 PM ET</text>
<text class="team" x="116" y="1415">葡萄牙</text>
<text class="team" x="116" y="1449">克罗地亚</text>
</g>
<g id="m84">
  <rect class="match" x="98" y="1504" width="245" height="120" rx="14"/>
<text class="time" x="116" y="1534">M84 · 7月2日 3:00 PM ET</text>
<text class="team" x="116" y="1570">西班牙</text>
<text class="team" x="116" y="1604">奥地利</text>
</g>
<g id="m93">
  <rect class="slot" x="413" y="1427" width="240" height="120" rx="14"/>
<text class="time" x="431" y="1457">M93 · 7月6日 3:00 PM ET</text>
<text class="team" x="431" y="1493">M83胜者</text>
<text class="team" x="431" y="1527">M84胜者</text>
</g>
<path class="connector" d="M343 1409 H378 V1487 H413"/>
<path class="connector" d="M343 1564 H378 V1487 H413"/>
<g id="m81">
  <rect class="match" x="98" y="1685" width="245" height="120" rx="14"/>
<text class="time" x="116" y="1715">M81 · 7月1日 8:00 PM ET</text>
<text class="team" x="116" y="1751">美国</text>
<text class="team" x="116" y="1785">波黑</text>
</g>
<g id="m82">
  <rect class="match" x="98" y="1840" width="245" height="120" rx="14"/>
<text class="time" x="116" y="1870">M82 · 7月1日 4:00 PM ET</text>
<text class="team" x="116" y="1906">比利时</text>
<text class="team" x="116" y="1940">塞内加尔</text>
</g>
<g id="m94">
  <rect class="slot" x="413" y="1763" width="240" height="120" rx="14"/>
<text class="time" x="431" y="1793">M94 · 7月6日 8:00 PM ET</text>
<text class="team" x="431" y="1829">M81胜者</text>
<text class="team" x="431" y="1863">M82胜者</text>
</g>
<path class="connector" d="M343 1745 H378 V1823 H413"/>
<path class="connector" d="M343 1900 H378 V1823 H413"/>
<g id="m98">
  <rect class="quarter" x="680" y="1583" width="225" height="120" rx="14"/>
<text class="time" x="698" y="1613">M98 · 7月10日 3:00 PM ET</text>
<text class="team" x="698" y="1649">M93胜者</text>
<text class="team" x="698" y="1683">M94胜者</text>
</g>
<path class="connector" d="M653 1487 H665 V1643 H680"/>
<path class="connector" d="M653 1823 H665 V1643 H680"/>
<rect class="panel" x="970" y="1265" width="760" height="755" rx="18"/>
<text class="section" x="996" y="1313">右下路径</text>
<g id="m86">
  <rect class="match" x="998" y="1349" width="245" height="120" rx="14"/>
<text class="time" x="1016" y="1379">M86 · 7月3日 6:00 PM ET</text>
<text class="team" x="1016" y="1415">阿根廷</text>
<text class="team" x="1016" y="1449">佛得角</text>
</g>
<g id="m88">
  <rect class="match" x="998" y="1504" width="245" height="120" rx="14"/>
<text class="time" x="1016" y="1534">M88 · 7月3日 2:00 PM ET</text>
<text class="team" x="1016" y="1570">澳大利亚</text>
<text class="team" x="1016" y="1604">埃及</text>
</g>
<g id="m95">
  <rect class="slot" x="1313" y="1427" width="240" height="120" rx="14"/>
<text class="time" x="1331" y="1457">M95 · 7月7日 12:00 PM ET</text>
<text class="team" x="1331" y="1493">M86胜者</text>
<text class="team" x="1331" y="1527">M88胜者</text>
</g>
<path class="connector" d="M1243 1409 H1278 V1487 H1313"/>
<path class="connector" d="M1243 1564 H1278 V1487 H1313"/>
<g id="m85">
  <rect class="match" x="998" y="1685" width="245" height="120" rx="14"/>
<text class="time" x="1016" y="1715">M85 · 7月2日 11:00 PM ET</text>
<text class="team" x="1016" y="1751">瑞士</text>
<text class="team" x="1016" y="1785">阿尔及利亚</text>
</g>
<g id="m87">
  <rect class="match" x="998" y="1840" width="245" height="120" rx="14"/>
<text class="time" x="1016" y="1870">M87 · 7月3日 9:30 PM ET</text>
<text class="team" x="1016" y="1906">哥伦比亚</text>
<text class="team" x="1016" y="1940">加纳</text>
</g>
<g id="m96">
  <rect class="slot" x="1313" y="1763" width="240" height="120" rx="14"/>
<text class="time" x="1331" y="1793">M96 · 7月7日 4:00 PM ET</text>
<text class="team" x="1331" y="1829">M85胜者</text>
<text class="team" x="1331" y="1863">M87胜者</text>
</g>
<path class="connector" d="M1243 1745 H1278 V1823 H1313"/>
<path class="connector" d="M1243 1900 H1278 V1823 H1313"/>
<g id="m100">
  <rect class="quarter" x="1580" y="1583" width="225" height="120" rx="14"/>
<text class="time" x="1598" y="1613">M100 · 7月11日 9:00 PM ET</text>
<text class="team" x="1598" y="1649">M95胜者</text>
<text class="team" x="1598" y="1683">M96胜者</text>
</g>
<path class="connector" d="M1553 1487 H1565 V1643 H1580"/>
<path class="connector" d="M1553 1823 H1565 V1643 H1580"/>
<g id="m101">
  <rect class="semi" x="595" y="1088" width="285" height="132" rx="14"/>
<text class="time" x="613" y="1118">M101 · 7月14日 3:00 PM ET</text>
<text class="team" x="613" y="1154">M97胜者</text>
<text class="team" x="613" y="1188">M98胜者</text>
</g>
<g id="m102">
  <rect class="semi" x="920" y="1088" width="285" height="132" rx="14"/>
<text class="time" x="938" y="1118">M102 · 7月15日 3:00 PM ET</text>
<text class="team" x="938" y="1154">M99胜者</text>
<text class="team" x="938" y="1188">M100胜者</text>
</g>
<g id="m104">
  <rect class="final" x="750" y="870" width="300" height="138" rx="14"/>
<text class="time" x="768" y="900">M104 · 7月19日 3:00 PM ET</text>
<text class="team" x="768" y="936">M101胜者</text>
<text class="team" x="768" y="970">M102胜者</text>
</g>
<g id="m103">
  <rect class="third" x="750" y="1298" width="300" height="132" rx="14"/>
<text class="time" x="768" y="1328">M103 · 7月18日 5:00 PM ET</text>
<text class="team" x="768" y="1364">M101负者</text>
<text class="team" x="768" y="1398">M102负者</text>
</g>
<text class="pathLabel" x="588" y="1058">半决赛：M97胜者 vs M98胜者</text>
<text class="pathLabel" x="914" y="1058">半决赛：M99胜者 vs M100胜者</text>
<path class="connectorHot" d="M905 623 H930 V1108 H595"/>
<path class="connectorHot" d="M905 1643 H930 V1188 H595"/>
<path class="connectorHot" d="M1580 623 H1510 V1108 H1205"/>
<path class="connectorHot" d="M1580 1643 H1510 V1188 H1205"/>
<path class="connectorHot" d="M880 1154 H900 V1008"/>
<path class="connectorHot" d="M920 1154 H900 V1008"/>
<path class="connector" d="M880 1154 H900 V1298"/>
<path class="connector" d="M920 1154 H900 V1298"/>
<text class="note" x="92" y="2290">关键路径：M97=M89/M90，M98=M93/M94，M99=M91/M92，M100=M95/M96；M101=M97/M98，M102=M99/M100。</text>
<text class="note" x="92" y="2326">来源：FIFA 公共赛事 API与世界杯 2026 淘汰赛官方赛程框架；第三名落位按 2026-06-29 刷新后的当前对阵。</text>
</svg>
