<svg xmlns="http://www.w3.org/2000/svg" width="700" height="850" viewBox="0 0 1400 1700">
<defs>
<style>
.bg{fill:#160b04}.glow{fill:#6b3f10;opacity:.32}.title{font:900 30px 'Microsoft YaHei','Noto Sans CJK SC',Arial,sans-serif;fill:#fff7ed}.subtitle{font:400 9px 'Microsoft YaHei','Noto Sans CJK SC',Arial,sans-serif;fill:#fed7aa}.section{font:800 12px 'Microsoft YaHei','Noto Sans CJK SC',Arial,sans-serif;fill:#ffedd5}.time{font:800 5.8px 'Microsoft YaHei','Noto Sans CJK SC',Arial,sans-serif;fill:#991b1b}.team{font:800 7.8px 'Microsoft YaHei','Noto Sans CJK SC',Arial,sans-serif;fill:#111827}.timePred{font:800 7px 'Microsoft YaHei','Noto Sans CJK SC',Arial,sans-serif;fill:#991b1b}.teamPred{font:900 24px 'Microsoft YaHei','Noto Sans CJK SC',Arial,sans-serif;fill:#111827}.panel{fill:#301707;stroke:#b45309;stroke-width:1.5}.match{fill:#fffaf0;stroke:#f59e0b;stroke-width:1.5}.slot{fill:#fff7ed;stroke:#fb923c;stroke-width:2}.quarter{fill:#ffedd5;stroke:#f97316;stroke-width:2.5}.semi{fill:#fef3c7;stroke:#facc15;stroke-width:2.5}.final{fill:#fff7cc;stroke:#fbbf24;stroke-width:3}.third{fill:#f1f5f9;stroke:#94a3b8;stroke-width:2.5}.connector{fill:none;stroke:#f8fafc;stroke-width:3.5;stroke-linecap:round;stroke-linejoin:round;opacity:.86}.connectorHot{fill:none;stroke:#fbbf24;stroke-width:4;stroke-linecap:round;stroke-linejoin:round}.note{font:400 8px 'Microsoft YaHei','Noto Sans CJK SC',Arial,sans-serif;fill:#fde68a}.pathLabel{font:800 9px 'Microsoft YaHei','Noto Sans CJK SC',Arial,sans-serif;fill:#ffffff}
</style>
<radialGradient id="gold" cx="50%" cy="14%" r="72%"><stop offset="0%" stop-color="#a16207"/><stop offset="45%" stop-color="#3b1d09"/><stop offset="100%" stop-color="#120805"/></radialGradient>
</defs>
<rect class="bg" x="0" y="0" width="1400" height="1700"/>
<rect x="0" y="0" width="1400" height="1700" fill="url(#gold)" opacity=".68"/>
<circle class="glow" cx="700" cy="790" r="280"/>
<text class="title" x="70" y="70">2026世界杯淘汰赛预测赛程</text>
<text class="subtitle" x="72" y="102">预测版：根据 2026-06-30 最新 32 强结果，大胆预测所有淘汰赛；美国东部时间（ET）。</text>
<text class="subtitle" x="72" y="127">生成时间：2026-06-30 11:39 UTC；赛程数据刷新至 2026-06-29。</text>
<rect class="panel" x="40" y="150" width="600" height="540" rx="14"/>
<g id="m74">
  <rect class="match" x="182" y="220" width="86" height="78" rx="10"/>
<text class="timePred" x="187" y="233">M74 · 6月29日</text>
<text class="timePred" x="187" y="246">4:30 PM ET</text>
<text class="teamPred" x="187" y="273">德国</text>
<text class="teamPred" x="187" y="295">巴拉圭</text>
</g>
<g id="m77">
  <rect class="match" x="182" y="322" width="86" height="78" rx="10"/>
<text class="timePred" x="187" y="335">M77 · 6月30日</text>
<text class="timePred" x="187" y="348">5:00 PM ET</text>
<text class="teamPred" x="187" y="375">法国</text>
<text class="teamPred" x="187" y="397">瑞典</text>
</g>
<g id="m89">
  <rect class="slot" x="308" y="270" width="84" height="78" rx="10"/>
<text class="timePred" x="313" y="283">M89 · 7月4日</text>
<text class="timePred" x="313" y="296">5:00 PM ET</text>
<text class="teamPred" x="313" y="323">巴拉圭</text>
<text class="teamPred" x="313" y="345">法国</text>
</g>
<path class="connector" d="M268 259 H288 V309 H308"/>
<path class="connector" d="M268 361 H288 V309 H308"/>
<g id="m73">
  <rect class="match" x="182" y="450" width="86" height="78" rx="10"/>
<text class="timePred" x="187" y="463">M73 · 6月28日</text>
<text class="timePred" x="187" y="476">3:00 PM ET</text>
<text class="teamPred" x="187" y="503">南非</text>
<text class="teamPred" x="187" y="525">加拿大</text>
</g>
<g id="m75">
  <rect class="match" x="182" y="552" width="86" height="78" rx="10"/>
<text class="timePred" x="187" y="565">M75 · 6月29日</text>
<text class="timePred" x="187" y="578">9:00 PM ET</text>
<text class="teamPred" x="187" y="605">荷兰</text>
<text class="teamPred" x="187" y="627">摩洛哥</text>
</g>
<g id="m90">
  <rect class="slot" x="308" y="500" width="84" height="78" rx="10"/>
<text class="timePred" x="313" y="513">M90 · 7月4日</text>
<text class="timePred" x="313" y="526">1:00 PM ET</text>
<text class="teamPred" x="313" y="553">加拿大</text>
<text class="teamPred" x="313" y="575">摩洛哥</text>
</g>
<path class="connector" d="M268 489 H288 V539 H308"/>
<path class="connector" d="M268 591 H288 V539 H308"/>
<g id="m97">
  <rect class="quarter" x="432" y="382" width="66" height="78" rx="10"/>
<text class="timePred" x="437" y="395">M97 · 7月9日</text>
<text class="timePred" x="437" y="408">4:00 PM ET</text>
<text class="teamPred" x="437" y="435">法国</text>
<text class="teamPred" x="437" y="457">摩洛哥</text>
</g>
<path class="connector" d="M392 309 H412 V421 H432"/>
<path class="connector" d="M392 539 H412 V421 H432"/>
<rect class="panel" x="760" y="150" width="600" height="540" rx="14"/>
<g id="m76">
  <rect class="match" x="1132" y="220" width="86" height="78" rx="10"/>
<text class="timePred" x="1137" y="233">M76 · 6月29日</text>
<text class="timePred" x="1137" y="246">1:00 PM ET</text>
<text class="teamPred" x="1137" y="273">巴西</text>
<text class="teamPred" x="1137" y="295">日本</text>
</g>
<g id="m78">
  <rect class="match" x="1132" y="322" width="86" height="78" rx="10"/>
<text class="timePred" x="1137" y="335">M78 · 6月30日</text>
<text class="timePred" x="1137" y="348">1:00 PM ET</text>
<text class="teamPred" x="1137" y="375" textLength="76" lengthAdjust="spacingAndGlyphs">科特迪瓦</text>
<text class="teamPred" x="1137" y="397">挪威</text>
</g>
<g id="m91">
  <rect class="slot" x="1008" y="270" width="84" height="78" rx="10"/>
<text class="timePred" x="1013" y="283">M91 · 7月5日</text>
<text class="timePred" x="1013" y="296">4:00 PM ET</text>
<text class="teamPred" x="1013" y="323">巴西</text>
<text class="teamPred" x="1013" y="345">挪威</text>
</g>
<path class="connector" d="M1132 259 H1112 V309 H1092"/>
<path class="connector" d="M1132 361 H1112 V309 H1092"/>
<g id="m79">
  <rect class="match" x="1132" y="450" width="86" height="78" rx="10"/>
<text class="timePred" x="1137" y="463">M79 · 6月30日</text>
<text class="timePred" x="1137" y="476">9:00 PM ET</text>
<text class="teamPred" x="1137" y="503">墨西哥</text>
<text class="teamPred" x="1137" y="525" textLength="76" lengthAdjust="spacingAndGlyphs">厄瓜多尔</text>
</g>
<g id="m80">
  <rect class="match" x="1132" y="552" width="86" height="78" rx="10"/>
<text class="timePred" x="1137" y="565">M80 · 7月1日</text>
<text class="timePred" x="1137" y="578">12:00 PM ET</text>
<text class="teamPred" x="1137" y="605">英格兰</text>
<text class="teamPred" x="1137" y="627" textLength="76" lengthAdjust="spacingAndGlyphs">刚果（金）</text>
</g>
<g id="m92">
  <rect class="slot" x="1008" y="500" width="84" height="78" rx="10"/>
<text class="timePred" x="1013" y="513">M92 · 7月5日</text>
<text class="timePred" x="1013" y="526">8:00 PM ET</text>
<text class="teamPred" x="1013" y="553">墨西哥</text>
<text class="teamPred" x="1013" y="575">英格兰</text>
</g>
<path class="connector" d="M1132 489 H1112 V539 H1092"/>
<path class="connector" d="M1132 591 H1112 V539 H1092"/>
<g id="m99">
  <rect class="quarter" x="902" y="382" width="66" height="78" rx="10"/>
<text class="timePred" x="907" y="395">M99 · 7月11日</text>
<text class="timePred" x="907" y="408">5:00 PM ET</text>
<text class="teamPred" x="907" y="435">巴西</text>
<text class="teamPred" x="907" y="457">英格兰</text>
</g>
<path class="connector" d="M1008 309 H988 V421 H968"/>
<path class="connector" d="M1008 539 H988 V421 H968"/>
<rect class="panel" x="40" y="910" width="600" height="540" rx="14"/>
<g id="m83">
  <rect class="match" x="182" y="980" width="86" height="78" rx="10"/>
<text class="timePred" x="187" y="993">M83 · 7月2日</text>
<text class="timePred" x="187" y="1006">7:00 PM ET</text>
<text class="teamPred" x="187" y="1033">葡萄牙</text>
<text class="teamPred" x="187" y="1055" textLength="76" lengthAdjust="spacingAndGlyphs">克罗地亚</text>
</g>
<g id="m84">
  <rect class="match" x="182" y="1082" width="86" height="78" rx="10"/>
<text class="timePred" x="187" y="1095">M84 · 7月2日</text>
<text class="timePred" x="187" y="1108">3:00 PM ET</text>
<text class="teamPred" x="187" y="1135">西班牙</text>
<text class="teamPred" x="187" y="1157">奥地利</text>
</g>
<g id="m93">
  <rect class="slot" x="308" y="1030" width="84" height="78" rx="10"/>
<text class="timePred" x="313" y="1043">M93 · 7月6日</text>
<text class="timePred" x="313" y="1056">3:00 PM ET</text>
<text class="teamPred" x="313" y="1083">葡萄牙</text>
<text class="teamPred" x="313" y="1105">西班牙</text>
</g>
<path class="connector" d="M268 1019 H288 V1069 H308"/>
<path class="connector" d="M268 1121 H288 V1069 H308"/>
<g id="m81">
  <rect class="match" x="182" y="1210" width="86" height="78" rx="10"/>
<text class="timePred" x="187" y="1223">M81 · 7月1日</text>
<text class="timePred" x="187" y="1236">8:00 PM ET</text>
<text class="teamPred" x="187" y="1263">美国</text>
<text class="teamPred" x="187" y="1285">波黑</text>
</g>
<g id="m82">
  <rect class="match" x="182" y="1312" width="86" height="78" rx="10"/>
<text class="timePred" x="187" y="1325">M82 · 7月1日</text>
<text class="timePred" x="187" y="1338">4:00 PM ET</text>
<text class="teamPred" x="187" y="1365">比利时</text>
<text class="teamPred" x="187" y="1387" textLength="76" lengthAdjust="spacingAndGlyphs">塞内加尔</text>
</g>
<g id="m94">
  <rect class="slot" x="308" y="1260" width="84" height="78" rx="10"/>
<text class="timePred" x="313" y="1273">M94 · 7月6日</text>
<text class="timePred" x="313" y="1286">8:00 PM ET</text>
<text class="teamPred" x="313" y="1313">美国</text>
<text class="teamPred" x="313" y="1335">比利时</text>
</g>
<path class="connector" d="M268 1249 H288 V1299 H308"/>
<path class="connector" d="M268 1351 H288 V1299 H308"/>
<g id="m98">
  <rect class="quarter" x="432" y="1142" width="66" height="78" rx="10"/>
<text class="timePred" x="437" y="1155">M98 · 7月10日</text>
<text class="timePred" x="437" y="1168">3:00 PM ET</text>
<text class="teamPred" x="437" y="1195">西班牙</text>
<text class="teamPred" x="437" y="1217">美国</text>
</g>
<path class="connector" d="M392 1069 H412 V1181 H432"/>
<path class="connector" d="M392 1299 H412 V1181 H432"/>
<rect class="panel" x="760" y="910" width="600" height="540" rx="14"/>
<g id="m86">
  <rect class="match" x="1132" y="980" width="86" height="78" rx="10"/>
<text class="timePred" x="1137" y="993">M86 · 7月3日</text>
<text class="timePred" x="1137" y="1006">6:00 PM ET</text>
<text class="teamPred" x="1137" y="1033">阿根廷</text>
<text class="teamPred" x="1137" y="1055">佛得角</text>
</g>
<g id="m88">
  <rect class="match" x="1132" y="1082" width="86" height="78" rx="10"/>
<text class="timePred" x="1137" y="1095">M88 · 7月3日</text>
<text class="timePred" x="1137" y="1108">2:00 PM ET</text>
<text class="teamPred" x="1137" y="1135" textLength="76" lengthAdjust="spacingAndGlyphs">澳大利亚</text>
<text class="teamPred" x="1137" y="1157">埃及</text>
</g>
<g id="m95">
  <rect class="slot" x="1008" y="1030" width="84" height="78" rx="10"/>
<text class="timePred" x="1013" y="1043">M95 · 7月7日</text>
<text class="timePred" x="1013" y="1056">12:00 PM ET</text>
<text class="teamPred" x="1013" y="1083">阿根廷</text>
<text class="teamPred" x="1013" y="1105">埃及</text>
</g>
<path class="connector" d="M1132 1019 H1112 V1069 H1092"/>
<path class="connector" d="M1132 1121 H1112 V1069 H1092"/>
<g id="m85">
  <rect class="match" x="1132" y="1210" width="86" height="78" rx="10"/>
<text class="timePred" x="1137" y="1223">M85 · 7月2日</text>
<text class="timePred" x="1137" y="1236">11:00 PM ET</text>
<text class="teamPred" x="1137" y="1263">瑞士</text>
<text class="teamPred" x="1137" y="1285" textLength="76" lengthAdjust="spacingAndGlyphs">阿尔及利亚</text>
</g>
<g id="m87">
  <rect class="match" x="1132" y="1312" width="86" height="78" rx="10"/>
<text class="timePred" x="1137" y="1325">M87 · 7月3日</text>
<text class="timePred" x="1137" y="1338">9:30 PM ET</text>
<text class="teamPred" x="1137" y="1365" textLength="76" lengthAdjust="spacingAndGlyphs">哥伦比亚</text>
<text class="teamPred" x="1137" y="1387">加纳</text>
</g>
<g id="m96">
  <rect class="slot" x="1008" y="1260" width="84" height="78" rx="10"/>
<text class="timePred" x="1013" y="1273">M96 · 7月7日</text>
<text class="timePred" x="1013" y="1286">4:00 PM ET</text>
<text class="teamPred" x="1013" y="1313">瑞士</text>
<text class="teamPred" x="1013" y="1335" textLength="74" lengthAdjust="spacingAndGlyphs">哥伦比亚</text>
</g>
<path class="connector" d="M1132 1249 H1112 V1299 H1092"/>
<path class="connector" d="M1132 1351 H1112 V1299 H1092"/>
<g id="m100">
  <rect class="quarter" x="902" y="1142" width="66" height="78" rx="10"/>
<text class="timePred" x="907" y="1155">M100 · 7月11日</text>
<text class="timePred" x="907" y="1168">9:00 PM ET</text>
<text class="teamPred" x="907" y="1195">阿根廷</text>
<text class="teamPred" x="907" y="1217" textLength="56" lengthAdjust="spacingAndGlyphs">哥伦比亚</text>
</g>
<path class="connector" d="M1008 1069 H988 V1181 H968"/>
<path class="connector" d="M1008 1299 H988 V1181 H968"/>
<g id="m101">
  <rect class="semi" x="600" y="724" width="92" height="88" rx="10"/>
<text class="timePred" x="605" y="737">M101 · 7月14日</text>
<text class="timePred" x="605" y="750">3:00 PM ET</text>
<text class="teamPred" x="605" y="777">法国</text>
<text class="teamPred" x="605" y="799">西班牙</text>
</g>
<g id="m102">
  <rect class="semi" x="708" y="724" width="92" height="88" rx="10"/>
<text class="timePred" x="713" y="737">M102 · 7月15日</text>
<text class="timePred" x="713" y="750">3:00 PM ET</text>
<text class="teamPred" x="713" y="777">巴西</text>
<text class="teamPred" x="713" y="799">阿根廷</text>
</g>
<g id="m104">
  <rect class="final" x="646" y="575" width="108" height="92" rx="10"/>
<text class="timePred" x="651" y="588">M104 · 冠亚军决赛</text>
<text class="timePred" x="651" y="601">7月19日 3:00 PM ET</text>
<text class="teamPred" x="651" y="628">西班牙</text>
<text class="teamPred" x="651" y="650" textLength="98" lengthAdjust="spacingAndGlyphs">巴西（冠军）</text>
</g>
<g id="m103">
  <rect class="third" x="646" y="860" width="108" height="88" rx="10"/>
<text class="timePred" x="651" y="873">M103 · 三四名比赛</text>
<text class="timePred" x="651" y="886">7月18日 5:00 PM ET</text>
<text class="teamPred" x="651" y="913">法国</text>
<text class="teamPred" x="651" y="935" textLength="98" lengthAdjust="spacingAndGlyphs">阿根廷（季军）</text>
</g>
<path class="connectorHot" d="M498 421 H550 V744 H600"/>
<path class="connectorHot" d="M498 1181 H550 V792 H600"/>
<path class="connectorHot" d="M902 421 H850 V744 H800"/>
<path class="connectorHot" d="M902 1181 H850 V792 H800"/>
<path class="connectorHot" d="M646 724 V690 H700 V667"/>
<path class="connectorHot" d="M754 724 V690 H700 V667"/>
<path class="connector" d="M646 812 V835 H700 V860"/>
<path class="connector" d="M754 812 V835 H700 V860"/>
<text class="note" x="70" y="1624">大胆预测冠军：巴西；亚军：西班牙；季军：阿根廷；第四名：法国。预测非官方结果。</text>
<text class="note" x="70" y="1652">来源：FIFA 公共赛事 API与世界杯 2026 淘汰赛官方赛程框架；第三名落位按 2026-06-29 刷新后的当前对阵。</text>
</svg>
