<svg xmlns="http://www.w3.org/2000/svg" width="1800" height="2200" viewBox="0 0 1800 2200">
  <defs>
    <style>
      .bg { fill: #f5f7fb; }
      .title { font: 800 52px "Microsoft YaHei", "Noto Sans CJK SC", Arial, sans-serif; fill: #0f172a; }
      .subtitle { font: 400 25px "Microsoft YaHei", "Noto Sans CJK SC", Arial, sans-serif; fill: #475569; }
      .section { font: 800 28px "Microsoft YaHei", "Noto Sans CJK SC", Arial, sans-serif; fill: #0f172a; }
      .label { font: 700 20px "Microsoft YaHei", "Noto Sans CJK SC", Arial, sans-serif; fill: #334155; }
      .small { font: 400 18px "Microsoft YaHei", "Noto Sans CJK SC", Arial, sans-serif; fill: #64748b; }
      .team { font: 700 26px "Microsoft YaHei", "Noto Sans CJK SC", Arial, sans-serif; fill: #0f172a; }
      .team2 { font: 700 23px "Microsoft YaHei", "Noto Sans CJK SC", Arial, sans-serif; fill: #0f172a; }
      .note { font: 400 19px "Microsoft YaHei", "Noto Sans CJK SC", Arial, sans-serif; fill: #475569; }
      .card { fill: #ffffff; stroke: #d8e0ee; stroke-width: 2; rx: 20; filter: url(#shadow); }
      .slot { fill: #ffffff; stroke: #cbd5e1; stroke-width: 2; rx: 14; }
      .slotHot { fill: #fff7ed; stroke: #fb923c; stroke-width: 2.5; rx: 14; }
      .pending { fill: #fefce8; stroke: #eab308; stroke-width: 2.5; rx: 14; }
      .connector { fill: none; stroke: #94a3b8; stroke-width: 4; stroke-linecap: round; stroke-linejoin: round; }
      .badge { fill: #e0f2fe; stroke: #7dd3fc; stroke-width: 1; rx: 12; }
      .badgeText { font: 700 17px "Microsoft YaHei", "Noto Sans CJK SC", Arial, sans-serif; fill: #075985; }
      .winner { fill: #ecfdf5; stroke: #34d399; stroke-width: 2; rx: 14; }
    </style>
    <filter id="shadow" x="-10%" y="-10%" width="120%" height="120%">
      <feDropShadow dx="0" dy="8" stdDeviation="8" flood-color="#0f172a" flood-opacity="0.10"/>
    </filter>
  </defs>

  <rect class="bg" x="0" y="0" width="1800" height="2200"/>

  <text class="title" x="90" y="90">2026 世界杯 32 强对阵图（中文）</text>
  <text class="subtitle" x="90" y="132">按最新刷新数据生成：2026-06-27；本地生成时间：2026-06-28 01:39 UTC</text>
  <text class="subtitle" x="90" y="168">说明：标注“当前”的位置来自当前积分/第三名落位推算；J 组第二仍按当前数据标为待定。</text>

  <rect class="card" x="70" y="210" width="800" height="890"/>
  <text class="section" x="105" y="260">上半区 A：通向 16 强赛 M89 / M90</text>

  <rect class="slotHot" x="105" y="300" width="320" height="92"/>
  <text class="label" x="125" y="330">M74 · 6月29日</text>
  <text class="team" x="125" y="365">德国 vs 巴拉圭</text>

  <rect class="slotHot" x="105" y="430" width="320" height="92"/>
  <text class="label" x="125" y="460">M77 · 6月30日</text>
  <text class="team" x="125" y="495">法国 vs 瑞典</text>

  <path class="connector" d="M425 346 H520 V476 H425"/>
  <rect class="winner" x="540" y="367" width="275" height="88"/>
  <text class="label" x="560" y="398">M89 · 16强赛</text>
  <text class="team2" x="560" y="432">M74胜者 vs M77胜者</text>

  <rect class="slot" x="105" y="610" width="320" height="92"/>
  <text class="label" x="125" y="640">M73 · 6月28日</text>
  <text class="team" x="125" y="675">南非 vs 加拿大</text>

  <rect class="slotHot" x="105" y="740" width="320" height="92"/>
  <text class="label" x="125" y="770">M75 · 6月29日</text>
  <text class="team" x="125" y="805">荷兰 vs 摩洛哥</text>

  <path class="connector" d="M425 656 H520 V786 H425"/>
  <rect class="winner" x="540" y="677" width="275" height="88"/>
  <text class="label" x="560" y="708">M90 · 16强赛</text>
  <text class="team2" x="560" y="742">M73胜者 vs M75胜者</text>

  <path class="connector" d="M815 411 H850 V721 H815"/>
  <rect class="badge" x="640" y="920" width="175" height="44"/>
  <text class="badgeText" x="666" y="949">四分之一决赛路径</text>
  <text class="small" x="545" y="1000">M97：M89胜者 vs M90胜者</text>

  <rect class="card" x="930" y="210" width="800" height="890"/>
  <text class="section" x="965" y="260">上半区 B：通向 MetLife 的 M91 / M92</text>

  <rect class="slotHot" x="965" y="300" width="320" height="92"/>
  <text class="label" x="985" y="330">M76 · 6月29日</text>
  <text class="team" x="985" y="365">巴西 vs 日本</text>

  <rect class="slotHot" x="965" y="430" width="320" height="92"/>
  <text class="label" x="985" y="460">M78 · 6月30日</text>
  <text class="team" x="985" y="495">科特迪瓦 vs 挪威</text>

  <path class="connector" d="M1285 346 H1380 V476 H1285"/>
  <rect class="winner" x="1400" y="367" width="275" height="88"/>
  <text class="label" x="1420" y="398">M91 · 16强赛</text>
  <text class="team2" x="1420" y="432">M76胜者 vs M78胜者</text>

  <rect class="slotHot" x="965" y="610" width="320" height="92"/>
  <text class="label" x="985" y="640">M79 · 6月30日</text>
  <text class="team" x="985" y="675">墨西哥 vs 厄瓜多尔</text>
  <text class="small" x="985" y="695">厄瓜多尔：E组第三，当前落位</text>

  <rect class="slotHot" x="965" y="740" width="320" height="92"/>
  <text class="label" x="985" y="770">M80 · 7月1日</text>
  <text class="team" x="985" y="805">英格兰 vs 刚果（金）</text>
  <text class="small" x="985" y="825">刚果（金）：K组第三，当前落位</text>

  <path class="connector" d="M1285 656 H1380 V786 H1285"/>
  <rect class="winner" x="1400" y="677" width="275" height="88"/>
  <text class="label" x="1420" y="708">M92 · 16强赛</text>
  <text class="team2" x="1420" y="742">M79胜者 vs M80胜者</text>

  <path class="connector" d="M1400 411 H1370 V721 H1400"/>
  <rect class="badge" x="1500" y="920" width="175" height="44"/>
  <text class="badgeText" x="1526" y="949">四分之一决赛路径</text>
  <text class="small" x="1405" y="1000">M99：M91胜者 vs M92胜者</text>

  <rect class="card" x="70" y="1160" width="800" height="890"/>
  <text class="section" x="105" y="1210">下半区 A：通向 16 强赛 M93 / M94</text>

  <rect class="slotHot" x="105" y="1250" width="320" height="92"/>
  <text class="label" x="125" y="1280">M83 · 7月2日</text>
  <text class="team" x="125" y="1315">葡萄牙 vs 克罗地亚</text>

  <rect class="pending" x="105" y="1380" width="320" height="92"/>
  <text class="label" x="125" y="1410">M84 · 7月2日</text>
  <text class="team" x="125" y="1445">西班牙 vs J组第二</text>
  <text class="small" x="125" y="1465">待确认：阿尔及利亚/奥地利等</text>

  <path class="connector" d="M425 1296 H520 V1426 H425"/>
  <rect class="winner" x="540" y="1317" width="275" height="88"/>
  <text class="label" x="560" y="1348">M93 · 16强赛</text>
  <text class="team2" x="560" y="1382">M83胜者 vs M84胜者</text>

  <rect class="slotHot" x="105" y="1560" width="320" height="92"/>
  <text class="label" x="125" y="1590">M81 · 7月1日</text>
  <text class="team" x="125" y="1625">美国 vs 波黑</text>

  <rect class="slotHot" x="105" y="1690" width="320" height="92"/>
  <text class="label" x="125" y="1720">M82 · 7月1日</text>
  <text class="team" x="125" y="1755">比利时 vs 塞内加尔</text>
  <text class="small" x="125" y="1775">塞内加尔：I组第三，当前落位</text>

  <path class="connector" d="M425 1606 H520 V1736 H425"/>
  <rect class="winner" x="540" y="1627" width="275" height="88"/>
  <text class="label" x="560" y="1658">M94 · 16强赛</text>
  <text class="team2" x="560" y="1692">M81胜者 vs M82胜者</text>

  <path class="connector" d="M815 1361 H850 V1671 H815"/>
  <rect class="badge" x="640" y="1890" width="175" height="44"/>
  <text class="badgeText" x="666" y="1919">四分之一决赛路径</text>
  <text class="small" x="545" y="1970">M98：M93胜者 vs M94胜者</text>

  <rect class="card" x="930" y="1160" width="800" height="890"/>
  <text class="section" x="965" y="1210">下半区 B：通向 16 强赛 M95 / M96</text>

  <rect class="slotHot" x="965" y="1250" width="320" height="92"/>
  <text class="label" x="985" y="1280">M86 · 7月3日</text>
  <text class="team" x="985" y="1315">阿根廷 vs 佛得角</text>

  <rect class="slotHot" x="965" y="1380" width="320" height="92"/>
  <text class="label" x="985" y="1410">M88 · 7月3日</text>
  <text class="team" x="985" y="1445">澳大利亚 vs 埃及</text>

  <path class="connector" d="M1285 1296 H1380 V1426 H1285"/>
  <rect class="winner" x="1400" y="1317" width="275" height="88"/>
  <text class="label" x="1420" y="1348">M95 · 16强赛</text>
  <text class="team2" x="1420" y="1382">M86胜者 vs M88胜者</text>

  <rect class="slotHot" x="965" y="1560" width="320" height="92"/>
  <text class="label" x="985" y="1590">M85 · 7月2日</text>
  <text class="team" x="985" y="1625">瑞士 vs 伊朗</text>
  <text class="small" x="985" y="1645">伊朗：G组第三，当前落位</text>

  <rect class="slotHot" x="965" y="1690" width="320" height="92"/>
  <text class="label" x="985" y="1720">M87 · 7月3日</text>
  <text class="team" x="985" y="1755">哥伦比亚 vs 加纳</text>
  <text class="small" x="985" y="1775">加纳：L组第三</text>

  <path class="connector" d="M1285 1606 H1380 V1736 H1285"/>
  <rect class="winner" x="1400" y="1627" width="275" height="88"/>
  <text class="label" x="1420" y="1658">M96 · 16强赛</text>
  <text class="team2" x="1420" y="1692">M85胜者 vs M87胜者</text>

  <path class="connector" d="M1400 1361 H1370 V1671 H1400"/>
  <rect class="badge" x="1500" y="1890" width="175" height="44"/>
  <text class="badgeText" x="1526" y="1919">四分之一决赛路径</text>
  <text class="small" x="1405" y="1970">M100：M95胜者 vs M96胜者</text>

  <text class="note" x="90" y="2110">数据口径：本项目 tracker 已刷新至 2026-06-27；官方赛制为 12 个小组前二 + 8 个最好第三名晋级 32 强。</text>
  <text class="note" x="90" y="2140">核对来源：FIFA/赛程框架与公开 knockout bracket；部分第三名对位按当前组合推算，实际以 FIFA 最终确认赛事页为准。</text>
</svg>
